<svg xmlns="http://www.w3.org/2000/svg" viewBox="0 0 64 64">
  <!-- Background circle -->
  <circle cx="32" cy="32" r="30" fill="#2196F3" />
  
  <!-- Globe grid lines (meridians) -->
  <path d="M32 2 A30 30 0 0 1 32 62 A30 30 0 0 1 32 2" fill="none" stroke="#ffffff" stroke-width="1" stroke-opacity="0.5" />
  <path d="M2 32 A30 30 0 0 1 62 32 A30 30 0 0 1 2 32" fill="none" stroke="#ffffff" stroke-width="1" stroke-opacity="0.5" />
  <path d="M8 16 A30 30 0 0 1 56 16" fill="none" stroke="#ffffff" stroke-width="1" stroke-opacity="0.5" />
  <path d="M8 48 A30 30 0 0 1 56 48" fill="none" stroke="#ffffff" stroke-width="1" stroke-opacity="0.5" />
  
  <!-- Latitude lines -->
  <ellipse cx="32" cy="32" rx="30" ry="15" fill="none" stroke="#ffffff" stroke-width="1" stroke-opacity="0.5" />
  <ellipse cx="32" cy="32" rx="20" ry="10" fill="none" stroke="#ffffff" stroke-width="1" stroke-opacity="0.5" />
  
  <!-- Continents (simplified shapes) -->
  <path d="M20 20 Q25 15 30 18 Q35 20 38 15 Q40 18 35 25 Q30 30 25 28 Q20 25 20 20" fill="#4CAF50" />
  <path d="M40 35 Q45 30 48 35 Q50 40 45 42 Q40 40 40 35" fill="#4CAF50" />
  <path d="M15 35 Q20 32 25 35 Q27 40 22 42 Q17 40 15 35" fill="#4CAF50" />
</svg> 